HIERARCHY
ROOT Hips
{
  OFFSET -91.4066 87.1039 -173.718
  CHANNELS 6 Xposition Yposition Zposition Zrotation Xrotation Yrotation
  JOINT RightUpLeg
  {
    OFFSET -8.9458 -8.66707 0.101652
    CHANNELS 3 Zrotation Xrotation Yrotation
    JOINT RightLeg
    {
      OFFSET 0 -44.4227 1.3727
      CHANNELS 3 Zrotation Xrotation Yrotation
      JOINT RightFoot
      {
        OFFSET 0.253549 -42.0924 -1.46059
        CHANNELS 3 Zrotation Xrotation Yrotation
        JOINT RightToes
        {
          OFFSET 0.04 -4.41509 8.4991
          CHANNELS 3 Zrotation Xrotation Yrotation
          End Site
          {
            OFFSET -0.08 -0.137448 9.77979
          }
        }
      }
    }
  }
  JOINT LeftUpLeg
  {
    OFFSET 8.9458 -8.66707 0.101652
    CHANNELS 3 Zrotation Xrotation Yrotation
    JOINT LeftLeg
    {
      OFFSET 0 -44.4227 1.3727
      CHANNELS 3 Zrotation Xrotation Yrotation
      JOINT LeftFoot
      {
        OFFSET -0.253549 -42.0924 -1.46059
        CHANNELS 3 Zrotation Xrotation Yrotation
        JOINT LeftToes
        {
          OFFSET -0.04 -4.41509 8.4991
          CHANNELS 3 Zrotation Xrotation Yrotation
          End Site
          {
            OFFSET 0.08 -0.047448 9.77979
          }
        }
      }
    }
  }
  JOINT Spine
  {
    OFFSET 0 11.8905 0
    CHANNELS 3 Zrotation Xrotation Yrotation
    JOINT Spine1
    {
      OFFSET 0 25.6574 0.127663
      CHANNELS 3 Zrotation Xrotation Yrotation
      JOINT HEad
      {
        OFFSET 0 8.73416 0.011341
        CHANNELS 3 Zrotation Xrotation Yrotation
        End Site
        {
          OFFSET -0.29 12.7742 2.51395
        }
      }
      JOINT LeftShoulder1
      {
        OFFSET 8.99 -0.362252 -0.22
        CHANNELS 3 Zrotation Xrotation Yrotation
        JOINT LeftArm
        {
          OFFSET 10.2827 -0.00338 0.322123
          CHANNELS 3 Zrotation Xrotation Yrotation
          JOINT LeftForeArm
          {
            OFFSET 32.7669 0.099144 -1.42434
            CHANNELS 3 Zrotation Xrotation Yrotation
            JOINT LeftHand
            {
              OFFSET 27.5643 0.085362 1.02216
              CHANNELS 3 Zrotation Xrotation Yrotation
              End Site
              {
                OFFSET 16.7443 -0.6 1.50291
              }
            }
          }
        }
      }
      JOINT RightShoulder
      {
        OFFSET -8.99 -0.362252 -0.22
        CHANNELS 3 Zrotation Xrotation Yrotation
        JOINT RightArm
        {
          OFFSET -10.2827 -0.00338 0.322123
          CHANNELS 3 Zrotation Xrotation Yrotation
          JOINT RightForeArm
          {
            OFFSET -32.8971 0.099144 -1.42434
            CHANNELS 3 Zrotation Xrotation Yrotation
            JOINT RightHand
            {
              OFFSET -27.4921 0.085362 1.02216
              CHANNELS 3 Zrotation Xrotation Yrotation
              End Site
              {
                OFFSET -16.6312 -0.6 1.50291
              }
            }
          }
        }
      }
    }
  }
}
MOTION
Frames:	14
Frame Time:	0.0166667
-108.573 92.6308 -180.765 6.74 -12.63 31.9977 -17.5922 -3.52932 12.5917 43.6564 29.4365 -53.5764 -29.5403 1.74303 -1.46139 0.0462048 0.000533403 0.662642 27.4271 -17.521 -25.0413 -32.574 15.5902 74.2111 -9.99542 -2.99133 -0.94723 -1.18446e-009 1.5602e-007 -4.87131e-009 -3.75523 21.9195 -4.49454 -0.00406066 0.01643 -1.32986e-006 0.329883 3.61861 11.4305 -1.19271e-015 1.59028e-015 -6.36111e-015 -114.457 -54.171 -91.3358 -46.9567 51.9174 -57.9885 18.4417 17.7122 -16.3887 20.0946 9.13756 -2.59309 102.503 -9.87984 71.8059 30.7254 55.1553 89.5952 17.1027 20.6403 1.73981 
-107.355 92.0936 -180.126 6.48234 -12.9934 31.5185 -17.8645 -3.21879 12.597 44.2747 30.4398 -53.6153 -29.8095 1.92051 -1.47385 0.0462048 0.000533403 0.662642 27.6681 -18.1235 -25.7187 -30.9789 15.6211 72.6277 -11.9734 -3.35389 -1.05422 -1.18447e-009 1.5602e-007 -4.87131e-009 -1.89845 20.7374 -4.9259 -0.00406066 0.01909 -1.32986e-006 -0.948244 4.84353 11.7994 -1.98785e-016 -1.59028e-015 -6.36111e-015 -114.334 -55.3766 -90.7573 -48.0122 51.9781 -57.2378 18.464 17.7328 -16.5726 19.667 9.90831 -2.54329 102.425 -9.90628 71.6921 30.5203 55.1884 89.4688 17.0659 20.7334 1.93154 
-105.956 91.5035 -179.424 6.15004 -13.3937 30.9876 -18.1804 -2.90416 12.6078 45.0021 31.5947 -53.6365 -30.0776 2.09839 -1.48617 0.0462048 0.000533403 0.662642 27.8601 -18.9279 -26.394 -29.7482 16.0462 71.6671 -12.6511 -3.549 -1.16069 -1.18447e-009 1.5602e-007 -4.87132e-009 0.236532 19.3777 -5.33801 -0.00406066 0.0197727 -1.32986e-006 -2.31929 6.18357 12.1583 3.97569e-016 3.97569e-016 6.36111e-015 -114.232 -56.6256 -90.0701 -49.1837 52.0881 -56.3567 18.4973 17.7106 -16.7496 19.0176 10.7665 -2.58026 102.46 -9.82107 71.5966 30.2491 55.2207 89.3443 17.0838 20.827 2.07124 
-104.411 90.8096 -178.684 5.75062 -13.8137 30.4121 -18.5947 -2.6736 12.6182 45.994 32.9589 -53.7987 -30.3698 2.14944 -1.48677 0.0462048 0.000533403 0.662642 28.3081 -19.0892 -27.1551 -26.6624 16.2065 69.3303 -23.1113 -3.78799 -1.63943 -1.18447e-009 1.5602e-007 -4.87131e-009 2.31201 18.2553 -5.62935 -0.00406066 0.0199723 -1.32986e-006 -3.44688 7.24477 12.4913 3.97569e-016 -3.97569e-016 -6.36111e-015 -114.318 -57.7502 -89.8426 -50.4341 52.233 -55.3803 18.5742 17.6124 -16.8766 18.4329 11.3717 -2.61839 102.586 -9.61562 71.5263 29.934 55.2533 89.2385 17.2155 20.9154 2.09638 
-102.782 90.2225 -177.933 5.29601 -14.2374 29.7993 -18.9257 -2.34303 12.6331 46.6535 34.2146 -53.6156 -30.7065 2.40423 -1.50347 0.0462048 0.000533403 0.662642 28.2218 -20.3567 -27.8244 -25.1474 17.366 68.4352 -19.6892 -3.79361 -1.67787 -1.18446e-009 1.5602e-007 -4.87131e-009 4.3186 17.3437 -5.82836 -0.00406066 0.0197394 -1.32986e-006 -4.33959 8.04657 12.7927 1.98785e-016 3.97569e-016 3.18055e-015 -114.57 -58.7571 -90.0031 -51.713 52.4064 -54.3619 18.6565 17.5173 -16.9914 17.8943 11.7652 -2.67283 102.782 -9.31168 71.4902 29.6014 55.2861 89.1614 17.3614 20.9897 2.07528 
-101.006 89.5522 -177.164 4.80085 -14.651 29.155 -19.3704 -2.072 12.6783 47.4775 35.5752 -53.5254 -31.0571 2.49721 -1.50512 0.0462048 0.000533403 0.662642 28.3048 -21.0159 -28.5869 -23.5236 18.5344 67.9263 -23.4505 -3.83451 -1.84338 -1.18447e-009 1.5602e-007 -4.87131e-009 6.24008 16.621 -5.95464 -0.00406066 0.0191244 -1.32986e-006 -5.01183 8.61282 13.0609 0 0 -3.18055e-015 -114.957 -59.654 -90.4785 -52.9648 52.6044 -53.3559 18.769 17.4052 -17.0622 17.3928 11.9852 -2.75021 103.033 -8.93237 71.4961 29.2769 55.3211 89.1098 17.5518 21.0441 1.9805 
-99.1689 88.9362 -176.408 4.27979 -15.0429 28.4848 -19.7998 -1.7667 12.7452 48.0951 36.838 -53.2275 -31.4586 2.62727 -1.50767 0.0462048 0.000533403 0.662642 28.1926 -21.9565 -29.345 -22.4405 20.1456 68.0607 -23.8099 -3.82831 -1.90603 -1.18446e-009 1.5602e-007 -4.87131e-009 8.05631 16.0682 -6.0229 -0.00406066 0.0181781 -1.32986e-006 -5.47903 8.96788 13.2975 -1.98785e-016 3.97569e-016 -0 -115.447 -60.4508 -91.1982 -54.1427 52.8215 -52.4048 18.8856 17.2914 -17.1019 16.9216 12.0682 -2.85047 103.335 -8.49881 71.5512 28.9847 55.3607 89.0719 17.7322 21.0668 1.85445 
-97.2668 88.3434 -175.671 3.74603 -15.4027 27.7951 -20.2569 -1.45339 12.848 48.5828 38.0196 -52.7961 -31.8932 2.70113 -1.50392 0.0462048 0.000533403 0.662642 28.0924 -22.753 -30.0998 -21.5434 21.8196 68.5093 -25.6103 -3.71777 -1.9777 -1.18447e-009 1.5602e-007 -4.8713e-009 9.74405 15.6685 -6.04407 -0.00406066 0.0169509 -1.32986e-006 -5.75628 9.13603 13.5061 1.98785e-016 3.97569e-016 3.18055e-015 -116.005 -61.1566 -92.0906 -55.2134 53.044 -51.5365 19.0133 17.131 -17.0841 16.4714 12.0514 -2.9621 103.689 -8.03502 71.6616 28.7441 55.4072 89.0309 17.9279 21.0512 1.67599 
-95.3342 87.8285 -174.97 3.21188 -15.7208 27.0931 -20.7044 -1.10321 12.9866 48.8072 39.0388 -52.121 -32.3627 2.76658 -1.49803 0.0462048 0.000533403 0.662642 27.9081 -23.6212 -30.8174 -21.0902 23.6378 69.3038 -26.1537 -3.6155 -1.98489 -1.18446e-009 1.5602e-007 -4.87132e-009 11.2772 15.4076 -6.02609 -0.00406066 0.0154935 -1.32986e-006 -5.85884 9.14156 13.6909 -1.98785e-016 -3.97569e-016 -0 -116.585 -61.7772 -93.075 -56.1558 53.2486 -50.7696 19.1336 16.9192 -17.0169 16.0334 11.9708 -3.064 104.097 -7.56901 71.8314 28.5649 55.4615 88.9726 18.11 20.9955 1.46618 
-93.3768 87.4108 -174.316 2.69127 -15.9892 26.3882 -21.19 -0.734283 13.1852 48.7521 39.9345 -51.2128 -32.3196 2.76334 -1.48927 0.0462048 0.000533403 0.662642 27.7175 -24.4226 -31.4611 -21.0604 25.39 70.309 -26.5597 -3.48076 -1.96463 -1.18446e-009 1.5602e-007 -4.87131e-009 12.6253 15.2751 -5.97546 -0.00406066 0.0138563 -1.32986e-006 -5.80183 9.00782 13.8571 9.93923e-016 0 3.18055e-015 -117.132 -62.3123 -94.0563 -56.9461 53.4135 -50.1233 19.2607 16.6389 -16.8952 15.5892 11.8593 -3.14635 104.568 -7.10965 72.0592 28.4476 55.523 88.8874 18.2992 20.9038 1.20692 
-91.4066 87.1039 -173.718 2.19932 -16.1988 25.7035 -21.657 -0.376188 13.4272 48.3826 40.5392 -49.9108 -32.3153 2.70433 -1.48246 0.0462048 0.000533403 0.662642 27.4847 -25.0562 -32.0283 -21.7933 27.1075 71.5563 -26.8204 -3.30482 -1.93314 -1.18446e-009 1.5602e-007 -4.87132e-009 13.7569 15.2595 -5.90802 -0.00406066 0.01209 -1.32986e-006 -5.60108 8.75698 14.0099 -7.95139e-016 0 -3.18055e-015 -117.593 -62.76 -94.9416 -57.5614 53.5248 -49.6144 19.3959 16.3161 -16.7445 15.128 11.7411 -3.20413 105.104 -6.66199 72.3372 28.3841 55.5908 88.7726 18.4827 20.7825 0.912881 
-89.4573 86.9313 -173.199 1.75394 -16.3413 25.0583 -22.1132 -0.0236763 13.7009 47.7895 40.9254 -48.4742 -32.2878 2.61287 -1.47625 0.0462048 0.000533403 0.662642 27.2095 -25.5095 -32.4745 -23.1246 28.6239 73.0227 -26.8859 -3.11095 -1.8806 -1.18447e-009 1.5602e-007 -4.87132e-009 14.6376 15.3443 -5.83914 -0.00515072 0.00923978 -0.00194097 -5.27618 8.42091 14.1639 -3.97569e-016 0 3.18055e-015 -117.924 -63.1216 -95.6508 -57.9721 53.5833 -49.2545 19.5491 15.9795 -16.5932 14.7651 11.6329 -3.46678 105.548 -6.10155 72.2932 28.0428 56.2487 89.5488 19.3307 20.5818 1.50247 
-87.6723 88.1022 -172.775 1.38072 -16.5177 24.4339 -21.9474 0.428266 13.7901 45.8568 41.2099 -45.846 -32.0296 2.44498 -1.44917 0.0462048 0.000533403 0.662642 26.4891 -25.8153 -32.6701 -24.4358 30.2138 72.8391 -24.9493 -2.99129 -1.72293 -1.18447e-009 1.5602e-007 -4.87132e-009 15.5011 14.9239 -6.05832 0.0176788 -0.0364125 -0.0207861 -4.77808 8.86855 14.2322 1.39149e-015 7.95139e-016 -3.18055e-015 -117.832 -63.3311 -96.8014 -58.3583 53.9362 -49.8737 18.9695 18.3 -20.8517 16.9055 8.82294 -3.37742 102.61 -8.82351 69.8246 27.5062 57.1518 91.8897 16.8952 24.7113 1.52988 
-86.0958 88.9627 -172.627 1.0436 -16.7735 23.8107 -21.2441 0.9637 13.7003 42.7586 41.3308 -42.1093 -31.498 2.16859 -1.41217 0.0462048 0.000533403 0.662642 25.5951 -26.0963 -32.5539 -25.8463 31.9285 71.1832 -22.4489 -2.8441 -1.49649 -1.18447e-009 1.5602e-007 -4.87131e-009 16.4144 14.0712 -6.57185 0.0217787 -0.0381228 -0.023446 -4.15121 10.0618 14.1747 9.93923e-016 1.19271e-015 3.18055e-015 -117.336 -63.3732 -98.3308 -58.7574 54.553 -51.3563 17.8925 21.8223 -26.2406 20.9753 4.30929 -2.9785 96.5245 -13.4383 65.3935 26.1791 58.6799 95.9288 13.9424 30.3039 0.343238 
